<svg width="42" height="42" viewBox="0 0 42 42" fill="none" xmlns="http://www.w3.org/2000/svg">
<path d="M0 20.4878C0 9.17271 9.17271 0 20.4878 0C31.8029 0 40.9756 9.17271 40.9756 20.4878C40.9756 31.8029 31.8029 40.9756 20.4878 40.9756C9.17271 40.9756 0 31.8029 0 20.4878Z" transform="translate(0.512085 0.511963)" fill="black"/>
<circle cx="21" cy="21" r="21" fill="black"/>
<rect width="25.6098" height="25.6097" fill="black" transform="translate(8.70715 7.68286)"/>
<path d="M2.00069 25.6097C1.75858 25.6097 1.51648 25.5175 1.33233 25.3332L0.276413 24.2773C-0.0921377 23.9088 -0.0921377 23.3092 0.276413 22.9406L1.97125 21.2458C2.07059 21.1467 2.23083 21.1457 2.33119 21.2423L11.5684 12.0048L7.25279 7.68919C7.2046 7.641 7.17748 7.57559 7.17748 7.50748V5.69005C7.17748 5.62194 7.2046 5.55653 7.25279 5.50834L12.6859 0.0753035C12.7341 0.0271144 12.7994 0 12.8677 0H14.685C14.7532 0 14.8186 0.0271144 14.8668 0.0753035L25.3563 10.5648C25.3566 10.5652 25.3568 10.5654 25.3571 10.5657C25.3573 10.5659 25.3577 10.5662 25.3579 10.5664L25.5345 10.743C25.5826 10.7911 25.6098 10.8566 25.6098 10.9247V12.7421C25.6098 12.8102 25.5826 12.8757 25.5345 12.9238L20.1014 18.3569C20.0533 18.405 19.9878 18.4322 19.9197 18.4322H18.1024C18.0343 18.4322 17.9689 18.405 17.9207 18.3569L13.6049 14.0411L12.0203 15.6256C12.019 15.6269 12.0178 15.6282 12.0167 15.6293L10.252 17.3939C10.2508 17.3953 10.2496 17.3964 10.2485 17.3974L4.9469 22.6991C4.94575 22.7002 4.94459 22.7014 4.94343 22.7024L4.36787 23.2781C4.46475 23.3788 4.4636 23.539 4.36439 23.6381L2.66967 25.333C2.48502 25.5175 2.24291 25.6097 2.00069 25.6097ZM2.15309 21.7907L0.639823 23.304C0.471611 23.4723 0.471611 23.7458 0.639823 23.9139L1.69574 24.9698C1.86369 25.1379 2.13741 25.138 2.30575 24.9698L3.81876 23.4567L2.15309 21.7907ZM3.72559 22.6362L4.00406 22.9148L4.21546 22.7034L3.72559 22.6362ZM3.1242 22.0349L4.67152 22.2473L5.98368 20.9352L3.68114 20.6193L2.69474 21.6055L3.1242 22.0349ZM4.13733 20.163L6.43999 20.4788L7.75202 19.1669L5.44948 18.8509L4.13733 20.163ZM5.90567 18.3948L8.20835 18.7106L9.52038 17.3984L7.21796 17.0826L5.90567 18.3948ZM18.3677 17.9181H19.813L25.0955 12.6358V11.1904L18.3677 17.9181ZM13.7899 13.4994L17.9248 17.6343L24.8119 10.7473L14.8082 0.743654L7.92114 7.63059L12.1101 11.8196C12.1114 11.8208 12.1126 11.822 12.1137 11.8232L13.7844 13.4939C13.7863 13.4956 13.7881 13.4975 13.7899 13.4994ZM7.67415 16.6263L9.97669 16.9423L11.2887 15.6301L8.98631 15.3142L7.67415 16.6263ZM9.44237 14.858L11.7449 15.1739L13.057 13.8617L10.7546 13.5459L9.44237 14.858ZM11.2107 13.0896L12.8828 13.3189L11.9321 12.3684L11.2107 13.0896ZM7.6915 5.79644V7.13327L14.3108 0.514018H12.974L7.6915 5.79644Z" transform="translate(8.70715 7.68286)" fill="white" stroke="white" stroke-width="0.25"/>
</svg>
